{
	"asset":{
		"generator":"Khronos glTF Blender I/O v3.6.27",
		"version":"2.0"
	},
	"extensionsUsed":[
		"KHR_materials_specular",
		"KHR_materials_ior"
	],
	"scene":0,
	"scenes":[
		{
			"name":"Scene",
			"nodes":[
				0
			]
		}
	],
	"nodes":[
		{
			"mesh":0,
			"name":"Mesh_002.003_DrawCall_0338.005",
			"rotation":[
				0.7071068286895752,
				0,
				0,
				0.7071068286895752
			]
		}
	],
	"materials":[
		{
			"doubleSided":true,
			"extensions":{
				"KHR_materials_specular":{
					"specularColorFactor":[
						1,
						1,
						1
					]
				},
				"KHR_materials_ior":{
					"ior":1
				}
			},
			"name":"Feet",
			"pbrMetallicRoughness":{
				"baseColorTexture":{
					"index":0
				},
				"metallicFactor":0,
				"roughnessFactor":0.690034806728363
			}
		},
		{
			"doubleSided":true,
			"extensions":{
				"KHR_materials_specular":{
					"specularColorFactor":[
						1,
						1,
						1
					]
				},
				"KHR_materials_ior":{
					"ior":1
				}
			},
			"name":"Body",
			"pbrMetallicRoughness":{
				"baseColorTexture":{
					"index":1
				},
				"metallicFactor":0,
				"roughnessFactor":0.690034806728363
			}
		},
		{
			"doubleSided":true,
			"extensions":{
				"KHR_materials_specular":{
					"specularColorFactor":[
						1,
						1,
						1
					]
				},
				"KHR_materials_ior":{
					"ior":1
				}
			},
			"name":"Arm",
			"pbrMetallicRoughness":{
				"baseColorTexture":{
					"index":2
				},
				"metallicFactor":0,
				"roughnessFactor":0.690034806728363
			}
		},
		{
			"doubleSided":true,
			"extensions":{
				"KHR_materials_specular":{
					"specularColorFactor":[
						1,
						1,
						1
					]
				},
				"KHR_materials_ior":{
					"ior":1
				}
			},
			"name":"Material.001",
			"pbrMetallicRoughness":{
				"baseColorFactor":[
					0.5120000243186951,
					0.056773897260427475,
					0.17835411429405212,
					1
				],
				"metallicFactor":0,
				"roughnessFactor":0.690034806728363
			}
		}
	],
	"meshes":[
		{
			"name":"Mesh_002.003_DrawCall_0338.005",
			"primitives":[
				{
					"attributes":{
						"POSITION":0,
						"NORMAL":1,
						"TEXCOORD_0":2
					},
					"indices":3,
					"material":0
				},
				{
					"attributes":{
						"POSITION":4,
						"NORMAL":5,
						"TEXCOORD_0":6
					},
					"indices":7,
					"material":1
				},
				{
					"attributes":{
						"POSITION":8,
						"NORMAL":9,
						"TEXCOORD_0":10
					},
					"indices":11,
					"material":2
				},
				{
					"attributes":{
						"POSITION":12,
						"NORMAL":13,
						"TEXCOORD_0":14
					},
					"indices":15,
					"material":3
				}
			]
		}
	],
	"textures":[
		{
			"sampler":0,
			"source":0
		},
		{
			"sampler":0,
			"source":1
		},
		{
			"sampler":0,
			"source":2
		}
	],
	"images":[
		{
			"bufferView":4,
			"mimeType":"image/png",
			"name":"Feet"
		},
		{
			"bufferView":9,
			"mimeType":"image/png",
			"name":"Body"
		},
		{
			"bufferView":14,
			"mimeType":"image/png",
			"name":"Arm"
		}
	],
	"accessors":[
		{
			"bufferView":0,
			"componentType":5126,
			"count":588,
			"max":[
				4.219268798828125,
				3.8998329639434814,
				-0.019301999360322952
			],
			"min":[
				-4.221238136291504,
				-2.8774290084838867,
				-2.658811092376709
			],
			"type":"VEC3"
		},
		{
			"bufferView":1,
			"componentType":5126,
			"count":588,
			"type":"VEC3"
		},
		{
			"bufferView":2,
			"componentType":5126,
			"count":588,
			"type":"VEC2"
		},
		{
			"bufferView":3,
			"componentType":5123,
			"count":2352,
			"type":"SCALAR"
		},
		{
			"bufferView":5,
			"componentType":5126,
			"count":481,
			"max":[
				4.567389011383057,
				4.501483917236328,
				-0.6788449883460999
			],
			"min":[
				-4.5535101890563965,
				-4.6134538650512695,
				-9.799725532531738
			],
			"type":"VEC3"
		},
		{
			"bufferView":6,
			"componentType":5126,
			"count":481,
			"type":"VEC3"
		},
		{
			"bufferView":7,
			"componentType":5126,
			"count":481,
			"type":"VEC2"
		},
		{
			"bufferView":8,
			"componentType":5123,
			"count":2592,
			"type":"SCALAR"
		},
		{
			"bufferView":10,
			"componentType":5126,
			"count":590,
			"max":[
				6.714097023010254,
				1.3825149536132812,
				-4.7463459968566895
			],
			"min":[
				-6.719718933105469,
				-1.4570599794387817,
				-7.6144208908081055
			],
			"type":"VEC3"
		},
		{
			"bufferView":11,
			"componentType":5126,
			"count":590,
			"type":"VEC3"
		},
		{
			"bufferView":12,
			"componentType":5126,
			"count":590,
			"type":"VEC2"
		},
		{
			"bufferView":13,
			"componentType":5123,
			"count":2376,
			"type":"SCALAR"
		},
		{
			"bufferView":15,
			"componentType":5126,
			"count":129,
			"max":[
				0.9759380221366882,
				4.388641834259033,
				-4.428637981414795
			],
			"min":[
				-0.9738029837608337,
				3.60327410697937,
				-6.113489151000977
			],
			"type":"VEC3"
		},
		{
			"bufferView":16,
			"componentType":5126,
			"count":129,
			"type":"VEC3"
		},
		{
			"bufferView":17,
			"componentType":5126,
			"count":129,
			"type":"VEC2"
		},
		{
			"bufferView":18,
			"componentType":5123,
			"count":672,
			"type":"SCALAR"
		}
	],
	"bufferViews":[
		{
			"buffer":0,
			"byteLength":7056,
			"byteOffset":0,
			"target":34962
		},
		{
			"buffer":0,
			"byteLength":7056,
			"byteOffset":7056,
			"target":34962
		},
		{
			"buffer":0,
			"byteLength":4704,
			"byteOffset":14112,
			"target":34962
		},
		{
			"buffer":0,
			"byteLength":4704,
			"byteOffset":18816,
			"target":34963
		},
		{
			"buffer":0,
			"byteLength":4213,
			"byteOffset":23520
		},
		{
			"buffer":0,
			"byteLength":5772,
			"byteOffset":27736,
			"target":34962
		},
		{
			"buffer":0,
			"byteLength":5772,
			"byteOffset":33508,
			"target":34962
		},
		{
			"buffer":0,
			"byteLength":3848,
			"byteOffset":39280,
			"target":34962
		},
		{
			"buffer":0,
			"byteLength":5184,
			"byteOffset":43128,
			"target":34963
		},
		{
			"buffer":0,
			"byteLength":391208,
			"byteOffset":48312
		},
		{
			"buffer":0,
			"byteLength":7080,
			"byteOffset":439520,
			"target":34962
		},
		{
			"buffer":0,
			"byteLength":7080,
			"byteOffset":446600,
			"target":34962
		},
		{
			"buffer":0,
			"byteLength":4720,
			"byteOffset":453680,
			"target":34962
		},
		{
			"buffer":0,
			"byteLength":4752,
			"byteOffset":458400,
			"target":34963
		},
		{
			"buffer":0,
			"byteLength":4215,
			"byteOffset":463152
		},
		{
			"buffer":0,
			"byteLength":1548,
			"byteOffset":467368,
			"target":34962
		},
		{
			"buffer":0,
			"byteLength":1548,
			"byteOffset":468916,
			"target":34962
		},
		{
			"buffer":0,
			"byteLength":1032,
			"byteOffset":470464,
			"target":34962
		},
		{
			"buffer":0,
			"byteLength":1344,
			"byteOffset":471496,
			"target":34963
		}
	],
	"samplers":[
		{
			"magFilter":9729,
			"minFilter":9987
		}
	],
	"buffers":[
		{
			"byteLength":472840,
			"uri":"data:application/octet-stream;base64,"
		}
	]
}
